<?xml version="1.0" encoding="UTF-8" standalone="no"?>
<!-- Created with Inkscape (http://www.inkscape.org/) -->

<svg
   version="1.1"
   id="svg2"
   width="640.20001"
   height="239.58667"
   viewBox="0 0 640.20001 239.58667"
   sodipodi:docname="Get your trip  (1).eps"
   xmlns:inkscape="http://www.inkscape.org/namespaces/inkscape"
   xmlns:sodipodi="http://sodipodi.sourceforge.net/DTD/sodipodi-0.dtd"
   xmlns="http://www.w3.org/2000/svg"
   xmlns:svg="http://www.w3.org/2000/svg">
  <defs
     id="defs6" />
  <sodipodi:namedview
     id="namedview4"
     pagecolor="#ffffff"
     bordercolor="#000000"
     borderopacity="0.25"
     inkscape:showpageshadow="2"
     inkscape:pageopacity="0.0"
     inkscape:pagecheckerboard="0"
     inkscape:deskcolor="#d1d1d1" />
  <g
     id="g8"
     inkscape:groupmode="layer"
     inkscape:label="ink_ext_XXXXXX"
     transform="matrix(1.3333333,0,0,-1.3333333,0,239.58667)">
    <g
       id="g10"
       transform="scale(0.1)">
      <path
         d="m 2052.99,814.074 c -0.13,-0.722 -0.26,-1.445 -0.39,-2.176 0.39,0.02 0.65,0.036 1.04,0.055 0.17,0.699 0.35,1.348 0.5,2.094 -0.38,0.004 -0.77,0.023 -1.15,0.027"
         style="fill:#5ab336;fill-opacity:1;fill-rule:nonzero;stroke:none"
         id="path12" />
      <path
         d="m 1727.8,403.359 h -62.39 c -14.28,0 -27.04,4.903 -38.7,14.282 -11.65,9.39 -20.29,21.05 -26.68,34.199 -27.81,-32.309 -60.5,-48.481 -97.7,-48.481 -28.19,0 -52.99,6.02 -74.78,17.672 -42.85,23.289 -72.53,63.867 -89.07,122.117 -8.27,28.184 -12.4,59.383 -12.4,93.192 0,31.582 3.38,63.89 10.52,97.351 13.16,58.61 34.2,107.473 62.38,146.926 28.19,39.457 61.63,69.145 99.97,89.063 38.32,19.918 78.54,30.047 120.62,30.047 25.55,0 48.85,-4.493 69.89,-13.137 21.06,-8.645 38.34,-19.918 51.5,-33.457 17.28,-17.653 25.92,-36.067 25.92,-54.863 0,-29.684 -21.04,-52.231 -63.13,-68.379 -2.63,5.996 -7.52,12.394 -13.9,18.777 -6.39,6.395 -15.79,11.652 -27.43,16.164 -11.66,4.133 -27.06,6.379 -46.23,6.379 -17.66,0 -35.7,-4.875 -54.49,-14.281 -18.41,-9.387 -35.32,-25.172 -50.73,-46.957 -15.41,-22.184 -27.44,-51.493 -36.83,-88.325 -4.88,-20.66 -7.14,-41.339 -7.14,-62 0,-20.679 2.63,-39.449 8.27,-57.117 5.26,-17.301 13.53,-31.199 24.43,-41.711 10.89,-10.531 24.8,-15.781 41.33,-15.781 26.31,0 47.73,5.633 64.64,16.91 l 7.51,24.789 c 5.64,16.551 10.9,34.582 15.41,54.121 -10.14,-1.129 -26.3,-1.89 -48.48,-1.89 -10.9,0 -19.54,3.011 -25.92,9.031 -6.39,5.641 -10.53,13.16 -13.16,22.16 -2.63,9.031 -3.76,18.801 -3.76,29.328 v 10.891 c 0,14.66 3.39,34.941 10.15,60.5 41.71,-5.258 83.05,-7.879 123.63,-7.879 18.04,0 36.08,0.379 54.49,1.5 h 1.89 c 14.65,0 26.67,-6.398 35.32,-18.801 5.64,-7.879 8.63,-17.289 8.63,-27.437 0,-5.992 -1.12,-12.391 -2.99,-19.532 -14.67,-45.089 -24.05,-89.808 -28.94,-134.539 -4.88,-44.711 -8.64,-91.679 -10.53,-140.91 l -1.12,-19.922"
         style="fill:#5ab336;fill-opacity:1;fill-rule:nonzero;stroke:none"
         id="path14" />
      <path
         d="m 1922.12,403.359 h -63.88 c -16.54,0 -29.32,6.02 -37.96,17.672 -7.51,9.77 -11.28,21.41 -11.28,34.949 0.76,14.641 7.9,59.75 21.43,135.27 7.89,43.23 14.28,75.16 18.41,95.82 26.68,130.403 43.22,234.508 49.61,312.657 h 20.29 c 79.29,0 135.28,1.503 167.98,4.153 47.35,3.75 73.27,5.64 78.16,5.64 16.15,0 30.06,-6.4 40.96,-18.797 10.15,-10.891 15.03,-24.434 15.03,-39.836 0,-3.391 -3.76,-32.699 -11.65,-88.321 -56.74,8.645 -111.23,13.161 -163.47,13.161 -15.03,0 -30.06,-0.383 -44.71,-0.743 -7.14,-42.464 -15.04,-85.312 -23.3,-128.894 74.78,4.129 115.74,6.371 122.5,6.371 15.78,0 28.94,-4.129 39.46,-12.391 10.52,-8.648 15.78,-19.922 15.78,-34.199 0,-1.133 -1.13,-10.891 -3,-30.07 -1.13,-9.391 -2.26,-20.66 -3.39,-33.821 -29.69,3.391 -60.5,4.899 -92.44,4.899 -34.2,0 -67.27,-1.508 -99.21,-4.141 -6.76,-34.937 -12.78,-69.136 -18.42,-101.828 l -1.12,-4.519 c 60.13,3.39 118,6.757 173.62,10.531 17.28,0 31.56,-6.012 42.83,-17.672 10.15,-10.148 15.41,-22.539 15.41,-37.211 0,-3.008 -4.13,-30.43 -12.03,-82.66 -30.43,4.133 -60.87,6.383 -91.31,6.383 -46.22,0 -94.32,-3.75 -144.3,-11.66 v -0.743"
         style="fill:#5ab336;fill-opacity:1;fill-rule:nonzero;stroke:none"
         id="path16" />
      <path
         d="m 2375.36,403.359 c -17.66,0 -31.19,6.02 -40.59,17.672 -7.88,9.391 -11.64,20.66 -11.64,33.821 0,2.988 0.37,6.378 0.75,9.769 11.64,73.66 25.56,147.668 41.71,222.09 13.53,63.508 25.56,125.891 35.7,186.766 l -78.91,-5.633 c -17.29,0 -31.95,6.375 -43.97,19.156 -12.03,12.773 -18.04,28.18 -18.04,46.215 v 66.152 c 39.08,-3.39 70.65,-5.277 95.07,-5.277 51.48,0 115.75,3.012 192.79,9.03 43.21,4.13 68.02,6.4 74.78,6.4 17.66,0 33.06,-6.4 45.47,-18.797 11.27,-10.891 16.91,-24.051 16.91,-39.094 0,-2.992 -4.13,-32.316 -12.78,-87.559 -60.51,8.266 -108.98,12.418 -145.05,12.778 -10.52,-57.106 -21.8,-114.618 -34.2,-172.848 -12.03,-56.738 -22.55,-111.238 -31.95,-162.711 -9.38,-51.488 -15.4,-97.707 -18.03,-137.93 h -68.02"
         style="fill:#5ab336;fill-opacity:1;fill-rule:nonzero;stroke:none"
         id="path18" />
      <path
         d="m 3056.33,403.359 c -11.64,0 -21.42,2.629 -29.3,8.27 -7.89,5.25 -13.91,12.391 -17.66,21.801 -4.15,9.39 -6.02,19.539 -6.02,31.191 0,17.649 2.63,36.07 7.51,54.859 4.9,19.161 12.03,38.719 20.67,58.61 8.65,19.922 18.8,40.601 30.07,61.64 -19.55,33.079 -35.32,63.129 -47.35,90.192 -11.27,24.43 -25.55,52.226 -43.22,83.422 -17.66,31.191 -44.35,70.644 -80.79,119.129 10.52,12.394 22.92,24.047 37.58,35.703 25.92,20.66 49.22,31.191 70.27,31.191 6.01,0 13.9,-1.504 23.3,-4.133 9.39,-3.007 18.79,-13.921 27.43,-33.078 15.04,-35.703 27.8,-69.523 38.71,-101.093 12.4,-36.067 25.92,-70.641 41.34,-103.704 17.28,28.922 33.06,57.489 47.72,85.668 14.65,28.184 26.3,55.243 35.7,81.563 9.02,26.676 13.53,51.469 13.53,75.137 h 70.65 c 11.64,0 21.41,-2.625 28.55,-7.883 7.14,-5.637 12.41,-12.778 15.79,-22.164 3.38,-9.028 4.88,-19.535 4.88,-31.192 0,-35.324 -12.02,-78.91 -35.69,-130.402 -16.17,-35.324 -42.1,-83.426 -78.17,-144.688 -18.42,-31.929 -36.08,-63.117 -52.62,-93.566 -37.57,-69.523 -56.36,-125.133 -56.36,-166.473 h -66.52"
         style="fill:#5ab336;fill-opacity:1;fill-rule:nonzero;stroke:none"
         id="path20" />
      <path
         d="m 3583.62,542.77 c 11.64,6.402 22.54,17.289 33.43,31.949 22.93,31.941 38.72,77.031 47.35,135.281 2.26,18.41 3.39,35.699 3.39,51.488 0,33.821 -4.14,60.117 -12.4,78.532 -4.89,11.656 -10.14,19.918 -16.16,24.05 -6.02,4.133 -18.03,6.399 -36.08,6.399 -16.15,0 -29.68,-3.391 -40.96,-9.77 -11.27,-6.398 -22.17,-17.289 -33.06,-31.953 -22.55,-31.551 -37.96,-76.644 -46.6,-135.277 -1.5,-13.539 -2.26,-26.68 -2.26,-39.071 0,-12.418 1.13,-26.699 3.38,-43.609 2.26,-16.527 6.76,-31.187 13.15,-44.328 6.39,-13.16 12.78,-22.18 19.55,-26.68 6.39,-4.511 15.41,-6.781 27.43,-6.781 15.03,0 28.18,3.391 39.84,9.77 z M 3476.89,417.262 c -20.67,9.41 -39.46,21.808 -55.62,37.207 -16.16,15.41 -29.3,33.062 -39.08,52.621 -21.04,41.699 -31.56,89.422 -31.56,143.539 0,19.531 1.5,39.453 4.13,59.371 9.77,78.551 33.06,143.559 70.27,194.672 13.15,18.41 28.94,34.941 46.97,49.223 39.47,30.429 83.05,45.832 131.15,45.832 25.56,0 49.61,-4.493 71.78,-13.899 22.17,-9.387 41.72,-21.785 58.63,-37.57 37.58,-35.703 58.62,-85.692 62.75,-150.32 0.75,-10.887 1.12,-21.809 1.12,-33.079 0,-62 -9.77,-120.609 -29.3,-175.847 -21.05,-59.762 -52.62,-106.364 -94.7,-139.43 -39.08,-30.812 -82.3,-46.223 -129.65,-46.223 -23.68,0 -45.84,4.52 -66.89,13.903"
         style="fill:#5ab336;fill-opacity:1;fill-rule:nonzero;stroke:none"
         id="path22" />
      <path
         d="m 4126.29,403.359 c -17.66,0 -31.19,5.641 -41.34,17.289 -7.89,9.391 -12.02,21.043 -12.02,34.563 0,2.629 0.37,5.641 0.75,8.289 v 1.121 1.129 c 0.37,3 0.75,6.371 1.51,9.762 -9.4,-14.66 -25.19,-29.68 -47.73,-45.09 -25.93,-18.031 -52.24,-27.063 -78.16,-27.063 -25.19,0 -46.6,7.891 -65.01,24.051 -18.42,15.789 -31.58,37.57 -39.09,65.781 -4.13,15.758 -6.39,32.668 -6.39,51.09 0,14.66 1.51,30.438 4.14,46.59 8.64,48.481 18.04,96.969 28.18,145.07 9.4,46.207 18.04,91.301 26.3,135.653 7.9,44.347 13.91,87.176 17.67,128.133 h 68.39 c 16.92,0 30.44,-5.997 39.83,-17.653 7.9,-9.386 11.66,-20.656 11.66,-34.199 0,-3.008 0,-6.016 -0.38,-9.387 -12.4,-77.047 -27.43,-155.957 -44.72,-236.75 -9.77,-46.597 -15.41,-74.398 -16.91,-83.429 -1.88,-11.649 -2.63,-23.668 -2.63,-35.7 0,-7.14 0.75,-14.277 1.87,-21.789 1.51,-7.14 4.52,-13.539 8.65,-18.789 4.51,-5.64 10.9,-8.269 19.17,-8.269 26.67,0 58.62,16.527 95.07,49.226 7.14,35.321 14.29,70.653 21.8,105.973 28.55,132.285 46.59,235.988 53.73,310.766 h 70.28 c 17.66,0 31.56,-5.997 41.33,-17.653 7.89,-9.386 12.03,-20.656 12.03,-34.199 0,-3.008 0,-6.016 -0.38,-9.387 -12.77,-76.281 -28.19,-154.828 -45.85,-235.25 -12.4,-56.75 -23.3,-110.859 -33.07,-162.328 -9.38,-51.5 -15.4,-97.328 -18.03,-137.551 h -70.65"
         style="fill:#5ab336;fill-opacity:1;fill-rule:nonzero;stroke:none"
         id="path24" />
      <path
         d="m 4542.7,753.23 c 28.94,19.911 43.22,43.579 43.22,70.645 0,22.543 -10.52,37.949 -31.57,45.832 -10.89,4.133 -22.92,6.02 -35.33,6.02 h -33.82 c -8.64,-49.606 -18.41,-99.957 -29.3,-151.067 34.19,2.629 63.12,12.02 86.8,28.57 z m 76.66,-145.808 c 7.89,-22.934 14.28,-47.723 19.54,-73.66 4.14,-18.793 8.27,-36.821 13.15,-54.5 4.89,-17.653 10.91,-33.43 18.8,-47.332 l -13.53,-8.649 c -8.65,-5.64 -21.04,-12.781 -36.83,-21.422 -10.9,-5.64 -22.17,-8.648 -33.82,-8.648 -4.88,0 -12.78,1.129 -24.05,3.769 -10.9,2.629 -20.67,11.641 -28.56,27.04 -8.65,18.421 -15.79,48.871 -22.18,91.332 -2.62,18.027 -6,35.32 -9.77,51.468 -4.13,18.41 -9.39,33.078 -16.15,44.352 -17.66,-3.012 -35.7,-4.512 -54.11,-4.871 -12.03,-54.5 -21.81,-122.141 -29.69,-202.942 h -68.77 c -17.29,0 -30.82,6.02 -40.21,17.672 -7.89,9.77 -12.02,21.41 -12.02,34.949 l 0.37,8.641 c 12.02,73.277 25.92,147.668 42.09,223.219 11.65,54.469 22.17,107.851 31.94,160.465 9.39,52.593 16.53,102.961 20.67,151.422 l 43.21,0.383 c 93.58,0 156.71,-7.883 189.03,-23.669 31.94,-16.168 57.11,-39.078 75.53,-69.144 13.53,-22.926 20.29,-49.984 20.29,-81.176 0,-47.723 -15.78,-89.062 -47.35,-124.769 -16.91,-19.153 -37.2,-36.063 -60.88,-50.34 9.78,-11.66 17.66,-26.301 23.3,-43.59"
         style="fill:#5ab336;fill-opacity:1;fill-rule:nonzero;stroke:none"
         id="path26" />
      <path
         d="M 3397.79,0 V 218.672 H 3249.4 V 320.129 H 3671 V 218.672 H 3522.61 V 0 h -124.82"
         style="fill:#5ab336;fill-opacity:1;fill-rule:nonzero;stroke:none"
         id="path28" />
      <path
         d="m 3837.61,226.762 v -54.543 h 152.2 c 7.63,0 14.06,2.621 19.3,7.851 5.48,5.489 8.1,11.918 8.1,19.301 0,15.238 -12.15,27.391 -27.4,27.391 z m 183.65,93.609 c 65.98,0.719 121.95,-54.781 121,-121 0,-24.062 -6.43,-45.973 -19.3,-65.5 -12.61,-19.301 -29.52,-34.0624 -50.48,-43.8319 L 4142.26,0.238281 H 4009.35 L 3949.08,78.3711 H 3837.61 V 0.238281 H 3712.79 V 320.371 h 308.47"
         style="fill:#5ab336;fill-opacity:1;fill-rule:nonzero;stroke:none"
         id="path30" />
      <path
         d="M 4305.78,320.609 V 0.480469 H 4180.96 V 320.609 h 124.82"
         style="fill:#5ab336;fill-opacity:1;fill-rule:nonzero;stroke:none"
         id="path32" />
      <path
         d="m 4649.3,171.98 c 7.38,0 13.82,2.622 19.06,7.86 5.48,5.48 8.1,11.91 8.1,19.289 0,7.621 -2.62,14.051 -8.1,19.301 -5.24,5.468 -11.68,8.09 -19.06,8.09 h -152.44 v -54.54 z m 31.2,148.149 c 65.99,0.73 121.96,-54.777 121.01,-121 0.95,-65.981 -55.02,-121.9571 -121.01,-121.0079 H 4496.86 V 0 h -124.82 v 320.129 h 308.46"
         style="fill:#5ab336;fill-opacity:1;fill-rule:nonzero;stroke:none"
         id="path34" />
      <path
         d="m 1036.78,1405.27 c 29.26,41.42 76.8,58.23 125.42,66.14 42.73,6.95 86.13,11.35 129.37,12.98 24.78,0.94 51.5,-1.49 74.44,-10.11 48.76,-18.34 64.09,-72.57 24.06,-103.54 -56.46,-43.69 -119.7,-80.77 -184.83,-110.04 -26.4,-11.86 -69.43,-4.23 -97.91,9.26 -89.62,42.47 -151.576,-5.76 -219.978,-53.78 12.312,-14.7 22.05,-26.32 33.086,-39.5 10.054,6.68 18.066,11.55 25.593,17.08 46.082,33.83 90.969,52.49 150.369,23.01 57.96,-28.76 121.1,-22.82 177.67,11 49.59,29.64 99.37,59.91 144.65,95.51 37.91,29.79 58.09,72.4 42.2,122.6 -15.2,48.01 -50.62,79.98 -99.27,85.17 -107.64,11.5 -214.98,8.67 -312.93,-46.5 -20.41,-11.49 -36.58,-30.8 -53.935,-47.32 -16.398,-15.59 -31.789,-32.25 -48.586,-49.44 -29.644,59.55 -22.715,102.01 21.293,142.71 32.768,30.3 63.818,63.17 100.018,88.68 13.56,9.56 41.49,6.96 59.38,0.39 33.94,-12.44 51.98,-1.94 65.02,32.25 -20.17,7.97 -39.75,15.71 -67.23,26.57 29.41,9.2 51.54,16.13 76.16,23.82 -1.55,13.24 -3.19,27.24 -5.45,46.61 -28.59,-5.48 -54.8,-10.51 -83.78,-16.07 3.86,17.56 7.15,32.5 10.91,49.61 -14.92,4.51 -29.73,8.99 -48.16,14.56 -7.96,-23.95 -15.7,-47.23 -24.12,-72.55 -9.94,8.59 -17.71,15.31 -25.53,22.06 -13.63,-8.79 -25.651,-16.54 -42.964,-27.69 18.067,-19.92 34.534,-38.08 54.474,-60.08 -19.2,-16.56 -38.032,-36.51 -60.275,-51.36 -93.226,-62.24 -121.711,-145.59 -86.289,-251.48 1.52,-4.53 1.727,-9.5 2.688,-14.24 0.937,-4.61 2.058,-9.18 3.722,-16.52 58.067,12.47 106.194,31.34 140.714,80.21"
         style="fill:#5ab336;fill-opacity:1;fill-rule:nonzero;stroke:none"
         id="path36" />
      <path
         d="m 179.797,922.949 c -11.91,17.778 -21.805,32.539 -36.332,54.223 -14.242,-21.254 -25.367,-37.852 -37.043,-55.274 -13.4767,5.43 -34.5118,13.911 -58.7189,23.668 -3.1836,-18.66 -5.7656,-33.773 -8.5703,-50.199 17.3125,-9.75 34.3008,-19.316 58.0391,-32.683 C 60.5273,862.18 32.5586,861.797 0,861.352 7.83594,840.973 13.3047,826.75 18.9453,812.074 c 22.0742,-2.316 45.0899,-4.734 68.1055,-7.148 -0.1016,-2.801 -0.207,-5.598 -0.3086,-8.395 -18.6328,-2.73 -37.2656,-5.472 -55.8125,-8.191 4.1836,-49.711 16.1445,-60.93 60.25,-44.481 24.4493,9.11 48.0313,28.2 64.7503,48.7 28.144,34.507 51.902,72.89 74.937,111.187 25.918,43.082 62.871,52.981 108.727,42.899 3.543,-0.778 7.109,-1.438 10.648,-2.215 69.477,-15.254 67.547,-15.375 71.906,-85.2 9.329,-149.429 20.829,-298.718 31.61,-448.05 0.328,-4.551 2.543,-8.969 4.574,-15.782 15.91,2.09 31.055,4.082 49.754,6.543 -7.055,101.989 -14.641,201.618 -20.602,301.348 -4.175,69.859 -9.621,139.918 -8.308,209.77 2.234,119.351 39.859,227.061 132.492,306.381 46.18,39.55 101.359,68.86 153.695,100.79 21.457,13.1 46.149,20.89 72.403,32.43 -6.121,15.91 -11.868,30.86 -18.84,49 -200.832,-76.52 -364.008,-186.44 -394.11,-423.172 -93.039,27.272 -184.199,52.482 -245.019,-55.539"
         style="fill:#5ab336;fill-opacity:1;fill-rule:nonzero;stroke:none"
         id="path38" />
      <path
         d="m 561.41,742.07 c -2.156,-25.64 -5.293,-50.23 -6.113,-74.89 -3.352,-100.211 -1.063,-200.93 -10.707,-300.5 -5.945,-61.36 -22.703,-124.032 -47.289,-180.61 -28.719,-66.09 -97.832,-90.5192 -175.512,-76.742 -69.894,12.402 -119.953,62.844 -131.484,132.5 -9.399,56.742 20.644,102.242 70.597,107.024 40.52,3.878 61.59,-21.141 77.516,-54.68 16.262,3.726 31.215,7.156 45.934,10.539 -6.735,51.961 -43.606,89.891 -93.633,98.418 C 236.285,412.41 179.68,384.582 153.309,335.578 109.152,253.539 147.781,136.91 236.461,84.5313 362.738,9.92969 518.898,58.8516 563.57,197.75 c 26.547,82.531 33.059,172.59 40.289,259.949 7.551,91.192 5.157,183.211 7.207,279.34 -13.949,1.41 -29.351,2.973 -49.656,5.031"
         style="fill:#5ab336;fill-opacity:1;fill-rule:nonzero;stroke:none"
         id="path40" />
      <path
         d="m 1135.21,1041.25 c -15.05,-28.31 -29.36,-55.25 -42.65,-80.254 57.31,-33.293 60.46,29.375 93,40.164 6.53,-22.648 12.91,-44.82 20.42,-70.883 17.73,9.446 31.24,16.649 45.22,24.098 -2.66,15.09 -5.09,28.832 -8.06,45.685 27.7,-3.103 52.26,-5.857 76.54,-8.58 12.34,65.39 -43.12,51.85 -76.64,69.1 12.49,21.74 24.29,42.29 37.62,65.48 -8.66,10.31 -18.5,22.01 -33.04,39.32 -18.41,-26.33 -35.12,-50.24 -51.79,-74.08 -53.09,1.62 -107.28,3.61 -161.48,4.83 -49.967,1.12 -94.827,16.59 -135.838,44.82 -31.985,22.02 -52.367,15.13 -73.805,-16.4 -44.668,-65.69 -91.781,-129.726 -140.223,-197.71 8.977,-7.922 21.106,-18.621 38.746,-34.188 51.317,67.836 100.559,132.928 151.606,200.408 76.637,-57.57 168.784,-51.61 260.374,-51.81"
         style="fill:#5ab336;fill-opacity:1;fill-rule:nonzero;stroke:none"
         id="path42" />
      <path
         d="m 626.145,796.922 c 65.328,6.578 129.101,13.004 192.878,19.426 2.77,-5.071 5.54,-10.145 8.305,-15.215 -23.988,-25.172 -49.765,-48.922 -71.387,-75.992 -16.503,-20.661 -57.23,-22.282 -49.003,-65.25 1.582,-8.262 -27.637,-22.422 -47.668,-37.68 18.601,-8.922 33.054,-15.852 43.902,-21.051 -9.527,-29.711 -19.731,-61.519 -30.317,-94.531 69.215,-13.359 60.715,54.25 96.883,73.75 23.235,-24.688 26.629,-82.731 90.332,-52.418 -13.929,28.758 -28.07,57.961 -46.242,95.48 26.074,-3.711 48.113,-6.851 76.176,-10.839 5.891,8.769 14.976,22.296 24.551,36.546 -40.942,36.711 -86.289,27.231 -130.719,19.422 25.609,34.52 54.519,67.918 77.031,105.192 31.567,52.254 17.918,81.109 -43.051,84.203 -65.257,3.308 -130.992,-2.754 -199.89,-4.828 3.754,-25.692 5.969,-40.84 8.219,-56.215"
         style="fill:#5ab336;fill-opacity:1;fill-rule:nonzero;stroke:none"
         id="path44" />
    </g>
  </g>
</svg>
